<svg width="301" height="60" viewBox="0 0 301 60" fill="none" xmlns="http://www.w3.org/2000/svg">
<path d="M300.791 24.994C301.805 32.6079 299.269 42.0104 290.139 46.3129C278.98 51.5715 274.415 44.6683 260.719 46.3129C254.632 47.0438 245.502 42.199 245.502 30.1446C245.502 18.0902 252.096 12.3788 263.763 13.3194C275.429 14.2601 278.98 8.24365 290.139 10.7815C295.567 12.016 299.776 17.3802 300.791 24.994Z" fill="#D0D0D0"/>
<path d="M286.869 22.9091L287.048 18.4483L290.139 18.2733L290.078 22.9091L289.957 29.4578L287.258 29.2157L286.99 25.4404L284.201 25.3205L284.472 22.9091H286.869Z" fill="white"/>
<path d="M262.555 27.3308L261.473 27.3813L260.594 27.2219L256.742 27.0646L255.647 29.5551H260.594L266.446 29.4311L271.813 29.0173L271.221 27.6436L267.691 27.5134L268.496 27.0646L268.91 26.7327L269.205 26.35L270.202 22.7747L269.825 20.5965L266.592 19.5997L262.567 19.7319L258.548 20.2293L258.446 21.947L262.531 22.2598L266.813 22.0869L266.838 23.4651L258.767 23.7461L258.548 25.4562L266.423 25.4053L264.789 27.5134L262.555 27.3308Z" fill="white"/>
<path d="M261.898 37.2795L261.867 36.3441L269.131 36.3184L269.326 34.7376L268.815 34.7078L268.971 32.1694L268.815 30.7994L264.164 30.9605L258.159 31.2825L258.45 33.1337L265.584 33.1616L265.969 34.6024L258.45 34.3896L258.134 36.2646L258.898 36.2924L258.837 38.8881L268.896 38.8881L269.326 37.2796L261.898 37.2795Z" fill="white"/>
<path d="M278.229 27.7531L278.197 25.462L282.677 25.4309L282.878 23.5316L282.348 23.4958L282.51 19.9194L282.348 18.2733L278.098 18.4668L274.446 18.8539L274.749 21.0781L278.994 21.1115L279.393 23.3692L274.083 23.1135L273.754 25.3664L274.547 25.3999L274.484 29.982L283.01 29.6858L282.878 27.7531H278.229Z" fill="white"/>
<path d="M287.799 39.9905L288.356 36.2565V30.738L285.789 30.931L285.525 32.2015L285.46 33.519L281.935 33.55V31.3146L279.203 31.0597L279.233 33.5833H278.742L278.576 35.8348L279.268 35.8658L279.298 38.2489L279.925 39.7284L284.964 39.3091L285.229 39.2781L285.194 39.8285L287.799 39.9881V39.9905ZM282.527 37.1886L281.968 36.7693L281.968 35.8991L285.395 35.5465L285.327 36.7693H285.295L282.529 37.1886H282.527Z" fill="white"/>
<path d="M58.5501 18.198V21.0877H57.5261V18.198H55.8814V23.791C55.747 23.8532 55.5711 23.905 55.3539 23.9568C55.1367 23.9982 54.8781 24.0293 54.5781 24.0293H52.8507V19.5859H55.0022V18.5916H51.144V23.8843C51.144 24.2261 51.2475 24.4953 51.4647 24.7025C51.6819 24.9096 51.9715 25.0132 52.3336 25.0132H54.5057C54.8264 25.0132 55.0953 24.9718 55.3125 24.8993C55.5401 24.8268 55.7159 24.7336 55.8607 24.6404V28.8248H57.5054V22.0613H58.5294V28.8248H60.1637V18.198H58.5294H58.5501Z" fill="#D0D0D0"/>
<path d="M65.108 25.3654H63.3806V27.6544C63.3806 28.0065 63.4944 28.2965 63.722 28.4933C63.9495 28.7005 64.2288 28.804 64.5701 28.804H70.5694V27.8304H65.108V25.3654Z" fill="#D0D0D0"/>
<path d="M70.1967 20.6321V18.1774H68.4694V26.0387H70.1967V21.6264H71.438V20.6425H70.1967V20.6321Z" fill="#D0D0D0"/>
<path d="M66.4008 23.8532C66.9283 23.3768 67.1869 22.8071 67.1869 22.1442C67.1869 21.7714 67.1041 21.4296 66.9283 21.1085C66.7524 20.7874 66.5145 20.5181 66.2146 20.3109H67.5592V19.3373H65.3664V18.0737H63.639V19.3373H61.4462V20.3109H62.8012C62.5116 20.5181 62.2737 20.7874 62.0978 21.1085C61.922 21.4296 61.8289 21.7714 61.8289 22.1442C61.8289 22.8071 62.0978 23.3768 62.6253 23.8532C63.1529 24.3297 63.7838 24.5679 64.5079 24.5679C65.2319 24.5679 65.8732 24.3297 66.4008 23.8532ZM63.7942 23.2007C63.5873 22.9107 63.4735 22.5482 63.4735 22.1339C63.4735 21.7196 63.5769 21.3674 63.7942 21.0774C64.0114 20.777 64.2493 20.632 64.5182 20.632C64.7872 20.632 65.0251 20.777 65.2423 21.0774C65.4595 21.3778 65.5629 21.7196 65.5629 22.1339C65.5629 22.5482 65.4595 22.9003 65.2423 23.2007C65.0354 23.5011 64.7975 23.6564 64.5182 23.6564C64.2389 23.6564 64.0114 23.5114 63.7942 23.2007Z" fill="#D0D0D0"/>
<path d="M92.7871 25.1375V24.1639H82.8676V25.1375H86.9636V28.8248H88.7014V25.1375H92.7871Z" fill="#D0D0D0"/>
<path d="M86.2708 22.7243C87.0672 22.3825 87.5948 21.9682 87.8327 21.4606C88.0706 21.9578 88.5981 22.3721 89.4049 22.7139C90.2117 23.0557 90.9564 23.2318 91.6598 23.2318L92.4769 22.486C91.5977 22.486 90.7392 22.196 89.9221 21.6264C89.1049 21.0567 88.6912 20.3835 88.6912 19.6067V18.4259H86.9431V19.6067C86.9431 20.3835 86.5397 21.0567 85.7226 21.6264C84.9054 22.196 84.0469 22.4757 83.1573 22.486L83.9745 23.2318C84.6882 23.2318 85.4536 23.0557 86.2501 22.7243H86.2708Z" fill="#D0D0D0"/>
<path d="M100.514 22.2271C100.514 23.0246 100.494 23.6771 100.442 24.195C100.401 24.7129 100.266 25.1479 100.039 25.5208H101.569C101.766 25.1893 101.931 24.7543 102.045 24.2261C102.159 23.6979 102.221 23.0764 102.221 22.3617V18.3534H94.5668V19.3477H100.514V22.2374V22.2271Z" fill="#D0D0D0"/>
<path d="M99.676 21.9993H98.0004V26.2769H97.1522V21.9993H95.4869V26.2769H93.7905V27.2505H103.245V26.2769H99.676V21.9993Z" fill="#D0D0D0"/>
<path d="M60.0189 34.1382V32.1807H58.2915V38.1984H60.0189V35.1118H61.2601V34.1382H60.0189Z" fill="#D0D0D0"/>
<path d="M58.6739 38.7783C58.136 38.3122 57.4947 38.0844 56.7293 38.0844C55.9639 38.0844 55.3226 38.3226 54.7847 38.7783C54.2468 39.2444 53.9779 39.8141 53.9779 40.4666C53.9779 41.1191 54.2468 41.6888 54.7847 42.1548C55.3226 42.6209 55.9742 42.8488 56.7293 42.8488C57.4844 42.8488 58.136 42.6106 58.6739 42.1548C59.2118 41.6991 59.4807 41.1295 59.4807 40.4666C59.4807 39.8037 59.2118 39.2444 58.6739 38.7783ZM57.5051 41.4505C57.2879 41.7405 57.0293 41.8855 56.7293 41.8855C56.4293 41.8855 56.1708 41.7405 55.9639 41.4505C55.7467 41.1605 55.6329 40.8394 55.6329 40.4666C55.6329 40.0937 55.7467 39.7623 55.9639 39.4723C56.1811 39.1822 56.4397 39.0372 56.7293 39.0372C57.0189 39.0372 57.2879 39.1822 57.5051 39.4723C57.7223 39.7623 57.8361 40.1041 57.8361 40.4666C57.8361 40.8291 57.7326 41.1605 57.5051 41.4505Z" fill="#D0D0D0"/>
<path d="M55.3952 37.204C55.9538 37.5975 56.502 37.8254 57.0399 37.8668L57.888 37.1418C57.1847 37.0072 56.5641 36.6239 56.0262 36.0025C55.478 35.3707 55.2091 34.5732 55.2091 33.5892V33.3821H57.1847V32.4084H51.506V33.3821H53.4506V33.5892C53.4506 34.5524 53.1817 35.35 52.6438 35.9921C52.106 36.6239 51.4853 37.0072 50.782 37.1418L51.6302 37.8668C52.168 37.8151 52.7162 37.5872 53.2851 37.1936C53.854 36.8 54.1954 36.3754 54.3402 35.9196C54.485 36.3754 54.8367 36.8 55.3952 37.1936V37.204Z" fill="#D0D0D0"/>
<path d="M78.0786 38.3019H81.0782V37.3387H75.2858V35.899H80.8713V32.3049H73.4653V33.2992H79.144V34.9254H73.5584V37.2351C73.5584 37.5769 73.6515 37.8358 73.848 38.0326C74.0446 38.2191 74.3238 38.3123 74.6962 38.3123H76.3512V40.2284H72.4827V41.202H81.9471V40.2284H78.0889V38.3123L78.0786 38.3019Z" fill="#D0D0D0"/>
<path d="M100.762 32.1495V38.8301C100.545 38.9026 100.286 38.9544 99.9759 39.0062C99.6656 39.058 99.3243 39.0787 98.9519 39.0787H97.6176V38.2915C98.1348 38.1258 98.5692 37.8254 98.9002 37.4111C99.2312 36.9865 99.407 36.5204 99.407 35.9922C99.407 35.6711 99.3346 35.3603 99.2001 35.0703C99.0657 34.7803 98.8795 34.5317 98.6519 34.3246H99.8414V33.351H97.6176V32.077H95.8902V33.351H93.6767V34.3246H94.8662C94.6283 34.5421 94.4524 34.7907 94.3076 35.0703C94.1731 35.3603 94.1007 35.6607 94.1007 35.9922C94.1007 36.51 94.2662 36.9865 94.6076 37.4111C94.9386 37.8254 95.373 38.1258 95.8902 38.2915V39.0787H93.6042V40.0523H98.8795C99.2312 40.0523 99.5725 40.0212 99.8932 39.9487C100.224 39.8866 100.514 39.7934 100.752 39.6794V42.7763H102.479V32.1495H100.752H100.762ZM96.7591 37.5043C96.4901 37.5043 96.2626 37.349 96.0557 37.0486C95.8592 36.7483 95.7557 36.3961 95.7557 36.0025C95.7557 35.6089 95.8592 35.2568 96.0557 34.946C96.2626 34.6457 96.4901 34.5007 96.7591 34.5007C97.028 34.5007 97.2659 34.656 97.4624 34.946C97.6589 35.2464 97.7624 35.5986 97.7624 36.0025C97.7624 36.4065 97.6589 36.7483 97.4624 37.0486C97.2659 37.349 97.028 37.5043 96.7591 37.5043Z" fill="#D0D0D0"/>
<path d="M77.8922 18.198V19.5238H76.5682C76.3303 19.2441 76.0407 19.0162 75.689 18.8505C75.3373 18.6848 74.965 18.5916 74.5616 18.5916C73.8168 18.5916 73.1755 18.8712 72.648 19.4202C72.1101 19.9691 71.8412 20.6216 71.8412 21.3881C71.8412 22.1546 72.1101 22.8071 72.648 23.3457C73.1859 23.8843 73.8168 24.1536 74.5616 24.1536C74.9443 24.1536 75.3063 24.081 75.658 23.9153C75.9993 23.76 76.2889 23.5425 76.5372 23.2835H77.8819V28.8248H79.4955V18.198H77.8819H77.8922ZM75.358 22.6724C75.1511 23.0142 74.8926 23.1903 74.5719 23.1903C74.2512 23.1903 73.9927 23.0246 73.7858 22.6724C73.5789 22.3203 73.4651 21.8956 73.4651 21.3777C73.4651 20.8599 73.5686 20.4456 73.7858 20.0934C73.9927 19.7516 74.2512 19.5755 74.5719 19.5755C74.8926 19.5755 75.1511 19.7516 75.358 20.0934C75.5649 20.4456 75.6683 20.8702 75.6683 21.3777C75.6683 21.8853 75.5649 22.3203 75.358 22.6724ZM77.8922 22.2892H77.1371C77.1785 22.1442 77.2199 21.9992 77.2406 21.8438C77.2612 21.6988 77.2819 21.5331 77.2819 21.3777C77.2819 21.2224 77.2819 21.067 77.2509 20.922C77.2302 20.777 77.1888 20.632 77.1475 20.4974H77.9025V22.2788L77.8922 22.2892Z" fill="#D0D0D0"/>
<path d="M81.6576 18.198H80.0439V28.8248H81.6576V18.198Z" fill="#D0D0D0"/>
<path d="M18.422 22.8075H8.09905V18.4574H18.422V8.00666L23.4179 6.78447V3.92581L1.62395 0.0313962C0.734397 -0.134323 0 0.476768 0 1.38823V49.2398C0 50.1409 0.734397 50.7416 1.62395 50.5759L18.4323 47.2304V22.8075H18.422Z" fill="#0098E1"/>
<path d="M40.2367 2.65145L23.418 6.78409V18.457H33.7512V22.8071H23.418V46.2254L18.422 47.2197V54.3249L40.247 59.9491C41.1262 60.1769 41.8503 59.6176 41.8503 58.7062V3.90471C41.8503 2.99325 41.1262 2.43395 40.247 2.6411L40.2367 2.65145Z" fill="#5CB531"/>
<path d="M23.4183 22.8071H33.7412V18.4673H23.4183V6.78406L18.4223 8.0166V18.4673H8.09937V22.8071H18.4223V47.2197L23.4183 46.2254V22.8071Z" fill="white"/>
<path d="M236.213 23.8495L236.29 28.6883L236.432 36.508L239.928 36.2336L240.43 29.2702L240.178 24.0553L236.213 23.8495Z" fill="#264C8F"/>
<path d="M121.782 28.9862L122.366 24.194V17.9788L119.671 18.1814L119.395 19.9371L119.327 21.3203L115.627 21.3528V18.584L112.758 18.3164L112.79 21.3878H112.274L112.1 23.7513L112.826 23.7839L112.858 27.1579L113.516 28.7111L118.806 28.2709L119.085 28.2384L119.048 28.8161L121.782 28.9837V28.9862ZM116.248 26.0449L115.661 25.6047V23.8189L119.258 23.4487L119.187 25.6047H119.153L116.25 26.0449H116.248Z" fill="#D0D0D0"/>
<path d="M129.045 29.3668L129.883 22.5245L129.569 18.3457L125.658 18.4805L125.483 22.5245L125.868 29.5366L129.045 29.3668Z" fill="#D0D0D0"/>
<path d="M130.229 34.5919C130.194 34.5496 130.074 34.5048 129.845 34.4949C129.83 34.4949 129.815 34.4949 129.803 34.4949C128.684 34.4675 127.518 34.4899 127.505 34.4899L126.339 34.5048L127.264 33.2206L127.55 32.8198L127.575 32.79L127.593 32.7651C127.616 32.7377 127.643 32.6929 127.661 32.6506C127.676 32.6158 127.691 32.5809 127.691 32.556V32.5386C127.686 32.4963 127.616 32.4117 127.452 32.3221C127.289 32.2275 127.129 32.1304 126.976 32.0383C126.738 31.8915 126.522 31.7546 126.356 31.6451C126.284 31.5978 126.218 31.558 126.166 31.5231C126.058 31.5605 125.832 31.6949 125.586 32.1727C125.1 33.116 124.5 33.7706 124.48 33.7955L123.913 34.4127L122.596 31.9139L122.561 31.8467C122.561 31.8467 122.546 31.7795 122.541 31.7795C122.481 31.5256 122.3 31.1224 122.112 31.0179C122.09 31.0079 122.052 30.993 121.967 31.0179C121.939 31.0303 121.912 31.0378 121.886 31.0478C121.613 31.1398 121.372 31.2419 121.169 31.3365C120.715 31.548 120.444 31.7297 120.442 31.7322H120.444L120.364 31.787L120.271 31.8143H120.276C120.088 31.8741 119.89 32.006 119.87 32.0682C119.87 32.0757 119.872 32.1006 119.897 32.1553C119.96 32.2748 120.045 32.439 120.143 32.6232C120.238 32.8074 120.346 33.0115 120.452 33.2131C120.733 33.7457 120.991 34.2485 120.996 34.2559L121.45 35.1295L118.46 35.0698L117.825 35.0574L117.04 35.0399L116.99 35.035L116.953 35.03H116.965C116.907 35.025 116.81 35.0325 116.774 35.0648C116.749 35.0822 116.717 35.1519 116.707 35.2838C116.662 36.0927 116.694 36.3366 116.697 36.3466V36.3317L116.707 36.4038V36.4636C116.707 36.4636 116.694 36.8294 116.779 37.1729C116.825 37.3621 116.917 37.5836 117.02 37.5861C117.279 37.601 117.703 37.5985 118.172 37.5911C119.228 37.5686 120.509 37.5064 120.698 37.499H120.728L121.937 37.4367L119.406 40.9635L119.293 41.1203C119.293 41.1203 119.09 41.4638 119.373 41.6828C119.907 42.0984 120.672 42.5464 121.041 42.7455C121.239 42.6709 121.458 42.5514 121.523 42.427L121.543 42.3896L123.692 39.5L127.162 41.7599L127.197 41.7873C127.197 41.7873 127.214 41.8023 127.222 41.8072C127.222 41.8097 127.445 41.9864 127.673 41.9615C127.819 41.9491 127.972 41.8446 128.12 41.6504C128.744 40.8465 128.877 40.635 128.88 40.6275L128.875 40.635L128.91 40.5752L128.95 40.5304L128.94 40.5354C128.94 40.5354 129.11 40.3288 129.075 40.0924C129.038 39.8435 128.774 39.627 128.556 39.4826C127.325 38.6837 126.512 38.2033 126.504 38.1958L124.919 37.26L126.439 37.1406L128.135 37.0062L129.178 36.924H129.289C129.306 36.9265 129.326 36.929 129.344 36.929C129.605 36.9514 129.996 36.9091 130.144 36.7797C130.177 36.7573 130.204 36.7224 130.207 36.6229C130.239 35.595 130.242 34.8508 130.242 34.8433V34.7786C130.242 34.7786 130.247 34.7587 130.247 34.7438C130.249 34.7363 130.249 34.7239 130.249 34.7139C130.249 34.679 130.242 34.6293 130.222 34.5969" fill="#D0D0D0"/>
<path d="M140.507 31.9794L140.76 31.233L140.568 28.7978L137.438 28.6194L137.247 30.5168L137.282 31.8889L133.767 31.796L133.549 34.5378L135.585 34.8821L140.162 35.0404L144.549 34.5378L144.331 32.0724L140.507 31.9794Z" fill="#D0D0D0"/>
<path d="M140.698 29.7201L143.367 29.5974L143.815 25.6474L143.485 23.3806L140.698 22.1984L138.088 22.3562L135.775 22.9448L135.749 25.3969L138.119 25.7701L140.875 25.3669L140.698 29.7201Z" fill="#D0D0D0"/>
<path d="M148.715 28.7161L148.527 24.0332L145.282 23.8495L145.346 28.7161L145.473 35.5908L148.306 35.3366L148.588 31.3734L151.516 31.2475L151.231 28.7161H148.715Z" fill="#D0D0D0"/>
<path d="M167.357 35.5907L164.358 35.6623L163.432 38.9725L163.75 41.526L173.846 42.0117L173.882 39.453L167.46 39.1437L167.357 35.5907Z" fill="#D0D0D0"/>
<path d="M165.12 32.7037L166.182 31.382L162.223 27.4993L162.647 26.6857L165.502 26.5831L165.577 24.1524L161.478 23.8495L156.325 24.0498L156.113 26.8885L158.656 26.8209L157.876 28.04L155.548 32.566L158.266 34.1231L160.704 30.4708L164.413 33.3771L165.12 32.7037Z" fill="#D0D0D0"/>
<path d="M169.481 23.4336L169.298 27.5448L169.697 34.6734L173.009 34.4983L173.882 27.5448L173.557 23.2991L169.481 23.4336Z" fill="#D0D0D0"/>
<path d="M184.446 32.1501L184.412 29.7449L189.115 29.7123L189.327 27.7184L188.77 27.6808L188.94 23.9264L188.77 22.1984L184.308 22.4015L180.475 22.8078L180.793 25.1427L185.249 25.1779L185.668 27.5479L180.093 27.2795L179.748 29.6446L180.581 29.6797L180.514 34.49L189.465 34.179L189.327 32.1501H184.446Z" fill="#D0D0D0"/>
<path d="M192.93 22.5652L192.764 27.5246L192.798 35.0403L196.309 34.5219L196.981 27.5246L196.678 22.5652H192.93Z" fill="#D0D0D0"/>
<path d="M209.302 26.9038L206.744 26.8371L206.464 30.8064L202.545 30.6062L202.297 34.41L206.395 34.7758L212.419 35.0403L217.88 34.5138L217.279 31.3428L213.746 31.1772L213.959 30.673L213.916 28.2162H215.251L216.266 23.6685L215.882 20.8978L212.592 19.6299L208.497 19.798L205.449 20.4307L205.345 23.5029L208.46 23.9008L212.817 23.6808L212.718 27.5415L210.651 27.5019L210.596 29.9093L210.633 31.0091L209.128 30.9449L209.302 26.9038Z" fill="#D0D0D0"/>
<path d="M230.531 32.2983L230.816 31.4896L230.672 29.643C230.931 29.6007 231.135 29.5609 231.279 29.5435C231.422 29.5211 231.505 29.5087 231.528 29.5087L233.412 25.2383C233.387 25.1985 233.203 24.9322 232.864 24.4494C232.519 23.9691 232.199 23.6132 231.92 23.3918L231.779 23.2723L231.53 23.1603L233.593 23.225L233.769 20.5722L230.959 20.2014L230.886 17.245L227.472 17.6183L227.329 20.1044L223.88 20.1691L223.737 22.9587L225.515 22.9911C225.4 23.016 225.296 23.0483 225.213 23.0882L225.055 23.1902C224.959 23.2823 224.71 23.5709 224.308 24.0662C223.908 24.5589 223.679 24.8476 223.634 24.9421C223.611 25.0093 223.744 25.5792 224.044 26.6543C224.338 27.7318 224.499 28.2644 224.522 28.2644C224.569 28.2644 224.856 28.4037 225.377 28.67C225.895 28.9388 226.416 29.1926 226.939 29.444L226.833 30.7206L226.869 32.1938L222.532 32.0968L222.28 35.0532L224.592 35.4265L230.142 35.5907L235.48 35.0557L235.228 32.4004L230.531 32.3033V32.2983ZM230.016 27.4083C229.596 27.5999 229.369 27.7045 229.321 27.7293L228.152 27.3561C228.127 27.3137 228.028 26.9853 227.862 26.3855C227.696 25.7783 227.616 25.4125 227.616 25.2731C227.616 25.1636 227.862 24.9272 228.363 24.5713C228.864 24.208 229.125 24.0239 229.145 23.9965C229.193 24.0214 229.445 24.203 229.893 24.5489C230.345 24.8973 230.579 25.084 230.607 25.1014C230.655 25.1014 230.695 25.3951 230.73 25.9749C230.765 26.5572 230.76 26.8957 230.715 26.9828C230.662 27.0748 230.436 27.2167 230.021 27.4058" fill="#D0D0D0"/>
<path d="M236.213 23.8495L236.29 28.6883L236.432 36.508L239.928 36.2336L240.43 29.2702L240.178 24.0553L236.213 23.8495Z" fill="#D0D0D0"/>
<path d="M230.531 32.2983L230.816 31.4896L230.672 29.643C230.931 29.6007 231.135 29.5609 231.279 29.5435C231.422 29.5211 231.505 29.5087 231.528 29.5087L233.412 25.2383C233.387 25.1985 233.203 24.9322 232.864 24.4494C232.519 23.9691 232.199 23.6132 231.92 23.3918L231.779 23.2723L231.53 23.1603L233.593 23.225L233.769 20.5722L230.959 20.2014L230.886 17.245L227.472 17.6183L227.329 20.1044L223.88 20.1691L223.737 22.9587L225.515 22.9911C225.4 23.016 225.296 23.0483 225.213 23.0882L225.055 23.1902C224.959 23.2823 224.71 23.5709 224.308 24.0662C223.908 24.5589 223.679 24.8476 223.634 24.9421C223.611 25.0093 223.744 25.5792 224.044 26.6543C224.338 27.7318 224.499 28.2644 224.522 28.2644C224.569 28.2644 224.856 28.4037 225.377 28.67C225.895 28.9388 226.416 29.1926 226.939 29.444L226.833 30.7206L226.869 32.1938L222.532 32.0968L222.28 35.0532L224.592 35.4265L230.142 35.5907L235.48 35.0557L235.228 32.4004L230.531 32.3033V32.2983ZM230.016 27.4083C229.596 27.5999 229.369 27.7045 229.321 27.7293L228.152 27.3561C228.127 27.3137 228.028 26.9853 227.862 26.3855C227.696 25.7783 227.616 25.4125 227.616 25.2731C227.616 25.1636 227.862 24.9272 228.363 24.5713C228.864 24.208 229.125 24.0239 229.145 23.9965C229.193 24.0214 229.445 24.203 229.893 24.5489C230.345 24.8973 230.579 25.084 230.607 25.1014C230.655 25.1014 230.695 25.3951 230.73 25.9749C230.765 26.5572 230.76 26.8957 230.715 26.9828C230.662 27.0748 230.436 27.2167 230.021 27.4058" fill="#D0D0D0"/>
<path d="M238.658 43.2056C241.268 43.0235 244.954 42.2007 247.165 37.8168C247.208 37.7303 247.28 37.6599 247.37 37.6232C250.679 36.2696 256.239 35.1732 253.014 41.2611C250.119 46.7273 242.903 45.5782 238.525 43.9217C238.131 43.7727 238.238 43.2349 238.658 43.2056Z" fill="#D0D0D0"/>
</svg>
